<svg width="138" height="36" viewBox="0 0 138 36" fill="none" xmlns="http://www.w3.org/2000/svg">
<g clip-path="url(#clip0_2129_26155)">
<g clip-path="url(#clip1_2129_26155)">
<path d="M21.6811 10.8406L32.5217 0H10.8406V10.8406V21.6811L0 32.5217H21.6811V21.6811V10.8406Z" fill="white"/>
<path d="M21.6807 10.8406V21.6811H32.5212V0L21.6807 10.8406Z" fill="#00AF9A"/>
<path d="M0 32.521L10.8406 21.6804V10.8398H0V32.521Z" fill="#00AF9A"/>
<path d="M73.0998 14.5586H70.8828V16.7756H73.0998V14.5586Z" fill="white"/>
<path d="M69.5217 14.5586H67.3047V16.7756H69.5217V14.5586Z" fill="white"/>
<path d="M62.8815 9.07359C62.8815 7.77894 62.6259 6.60654 61.9647 5.89532C61.1757 5.0563 60.0533 4.70624 58.6309 4.70624H54.1691V3.61719H52.1076V12.5852H48.8071C47.8736 12.5852 46.9291 12.4408 46.3956 11.9851C45.9067 11.574 45.7289 10.8961 45.7289 9.96261V5.31189H43.3174V10.2293C43.3174 11.5128 43.6008 12.7742 44.3787 13.502C45.3455 14.4189 46.5734 14.7967 48.4515 14.7967H54.1691V12.8242H62.8871V9.07359H62.8815ZM60.6645 10.6072H54.1635V6.90658H58.8476C59.4199 6.90658 59.97 7.17329 60.2367 7.52335C60.52 7.88451 60.6645 8.34569 60.6645 8.97913V10.6072Z" fill="white"/>
<path d="M74.1389 3.91727H71.9219V10.6072H67.4768V0H65.2598V12.8242H74.1389V3.91727Z" fill="white"/>
<path d="M89.9524 0H87.7354V12.8242H89.9524V0Z" fill="white"/>
<path d="M58.9093 0.716797H56.709V2.91714H58.9093V0.716797Z" fill="white"/>
<path d="M130.554 0H128.337V2.24479H130.554V0Z" fill="white"/>
<path d="M137.171 14.5742H134.954V16.7912H137.171V14.5742Z" fill="white"/>
<path d="M101.344 12.8242H137.177V3.93394H134.966V10.6239H130.554V3.93394H128.337V10.6239H116.524L116.502 0H114.285L114.307 10.6239H101.733C100.799 10.6239 99.9159 10.4794 99.3769 10.0238C98.8879 9.61259 98.7101 8.93471 98.7101 8.00123V5.26748H96.2598V8.26794C96.2598 9.55147 96.5431 10.8128 97.321 11.5407C98.2878 12.4575 99.4547 12.8242 101.338 12.8242" fill="white"/>
<path d="M108.839 6.21117H106.499V5.3277C106.499 4.99431 106.577 4.73872 106.727 4.55536C106.866 4.38866 107.033 4.31088 107.255 4.31088H108.477V3.02734H107.394C106.699 3.02734 106.149 3.2496 105.771 3.683C105.405 4.10529 105.216 4.72205 105.216 5.51106V7.50026H108.839V6.21672V6.21117Z" fill="white"/>
<path d="M78.7125 12.8242H85.3524V0H83.1354V10.6072H78.7292V3.91727H76.5122V12.5408C76.5122 13.6299 76.2121 14.0911 75.3287 14.0911C75.0508 14.0911 74.7952 14.0688 74.4785 13.9966V16.1747C74.7508 16.247 75.1731 16.3081 75.5676 16.3081C77.6568 16.3081 78.5903 15.269 78.7181 12.8298" fill="white"/>
<path d="M53.3696 23.0378C53.3696 20.9431 51.9472 18.9316 48.4077 18.9316H43.3125V32.5226H45.724V27.1607H48.1188L51.436 32.5226H54.1531L50.6025 26.8217C52.6306 26.1494 53.3696 24.5936 53.3696 23.0323M47.8743 25.0604H45.7295V21.1709H47.8743C49.8691 21.1709 50.8248 21.721 50.8248 23.0823C50.8248 24.6547 49.6524 25.0604 47.8743 25.0604Z" fill="white"/>
<path d="M75.5059 23.2988C74.2779 23.2988 73.0833 23.6155 72.3776 23.96L72.0943 26.2104C72.9611 25.7881 74.2946 25.4214 75.2059 25.4214C76.4172 25.4214 77.2506 25.7048 77.2506 26.7105V26.8383C76.5894 26.7438 75.9949 26.7105 75.5226 26.7105C73.1167 26.7105 71.4053 27.7328 71.4053 29.7165C71.4053 31.889 73.3889 32.6558 75.6059 32.6558C76.9117 32.6558 78.3397 32.4058 79.4565 31.9668V26.8105C79.4565 24.2323 77.7896 23.3044 75.5115 23.3044M77.2562 30.4277C76.7839 30.5833 76.1838 30.6777 75.6337 30.6777C74.5502 30.6777 73.7001 30.3944 73.7001 29.5776C73.7001 28.7608 74.6447 28.4441 75.7615 28.4441C76.2505 28.4441 76.845 28.5219 77.2562 28.633V30.4277Z" fill="white"/>
<path d="M87.7466 23.4207C87.1465 23.3429 86.613 23.2929 86.2185 23.2929C83.2014 23.2929 81.2178 25.3543 81.2178 27.9936C81.2178 30.6329 83.1181 32.6499 86.3908 32.6499C87.6632 32.6499 88.8578 32.4943 89.9469 32.1942V19.709H87.7466V23.4207ZM87.7466 30.3217C87.2576 30.4329 86.802 30.494 86.3797 30.494C84.6516 30.494 83.5348 29.7105 83.5348 27.9936C83.5348 26.2767 84.6516 25.4488 86.3797 25.4488C86.7742 25.4488 87.2131 25.4932 87.7466 25.6377V30.3217Z" fill="white"/>
<path d="M67.3044 30.1042C66.6598 30.2931 66.1264 30.3431 65.6541 30.3431C64.4261 30.3431 63.9094 29.8542 63.9094 28.2373V23.5977H61.6924V28.8651C61.6924 31.7711 63.2982 32.499 65.543 32.499C66.1097 32.499 66.7043 32.4379 67.3044 32.3101V32.499C67.3044 33.5381 66.3431 33.977 64.9929 33.977C64.3483 33.977 63.4149 33.8215 62.6259 33.5825V35.6884C63.3315 35.8718 64.2928 36.0051 64.8984 36.0051C68.4045 36.0051 69.5047 34.9216 69.5047 31.7934V23.6032H67.3044V30.1153V30.1042Z" fill="white"/>
<path d="M112.573 23.2988C111.345 23.2988 110.151 23.6155 109.445 23.96L109.162 26.2104C110.028 25.7881 111.362 25.4214 112.273 25.4214C113.485 25.4214 114.318 25.7048 114.318 26.7105V26.8383C113.657 26.7438 113.062 26.7105 112.59 26.7105C110.184 26.7105 108.473 27.7328 108.473 29.7165C108.473 31.889 110.456 32.6558 112.673 32.6558C113.979 32.6558 115.407 32.4058 116.524 31.9668V26.8105C116.524 24.2323 114.857 23.3044 112.579 23.3044M114.324 30.4277C113.851 30.5833 113.257 30.6777 112.701 30.6777C111.618 30.6777 110.767 30.3944 110.767 29.5776C110.767 28.7608 111.712 28.4441 112.829 28.4441C113.318 28.4441 113.912 28.5219 114.324 28.633V30.4277Z" fill="white"/>
<path d="M122.297 23.3594C121.335 23.3594 119.685 23.565 118.318 23.815V32.5275H120.519V25.6875C121.147 25.5764 121.73 25.5153 122.202 25.5153C123.508 25.5153 124.186 26.0042 124.186 27.6211V32.5275H126.386V26.9933C126.386 24.0817 124.564 23.3594 122.297 23.3594Z" fill="white"/>
<path d="M132.965 28.0597L136.993 23.6701H134.382L130.387 28.0264V19.7695H128.181V32.5215H130.387V28.1542L134.554 32.5215H137.193L132.965 28.0597Z" fill="white"/>
<path d="M104.077 25.2159C105.366 24.6492 105.972 23.4879 105.972 22.3488C105.972 20.4374 104.449 18.9316 101.06 18.9316H96.2871V32.5226H101.732C104.211 32.5226 106.678 31.3836 106.678 28.5331C106.678 27.1607 105.905 25.766 104.083 25.2159M98.7042 21.1764H100.916C102.76 21.1764 103.477 21.8321 103.477 22.7656C103.477 23.8713 102.688 24.4103 100.916 24.4103H98.7042V21.1764ZM101.399 30.2778H98.7042V26.6773H101.332C103.11 26.6773 104.183 27.0607 104.183 28.4887C104.183 29.7278 103.294 30.2834 101.399 30.2834" fill="white"/>
<path d="M58.9093 23.6699H56.709V32.5213H58.9093V23.6699Z" fill="white"/>
<path d="M58.9093 19.7031H56.709V21.9035H58.9093V19.7031Z" fill="white"/>
</g>
</g>
<defs>
<clipPath id="clip0_2129_26155">
<rect width="137.193" height="36" fill="white"/>
</clipPath>
<clipPath id="clip1_2129_26155">
<rect width="137.193" height="36" fill="white"/>
</clipPath>
</defs>
</svg>
